<?xml version="1.0" encoding="UTF-8" standalone="no"?>
<!-- Created with Inkscape (http://www.inkscape.org/) -->

<svg
   xmlns:dc="http://purl.org/dc/elements/1.1/"
   xmlns:cc="http://creativecommons.org/ns#"
   xmlns:rdf="http://www.w3.org/1999/02/22-rdf-syntax-ns#"
   xmlns:svg="http://www.w3.org/2000/svg"
   xmlns="http://www.w3.org/2000/svg"
   xmlns:sodipodi="http://sodipodi.sourceforge.net/DTD/sodipodi-0.dtd"
   xmlns:inkscape="http://www.inkscape.org/namespaces/inkscape"
   width="292.14307"
   height="360.99997"
   id="svg30035"
   version="1.1"
   inkscape:version="0.48.4 r9939"
   sodipodi:docname="New document 19">
  <defs
     id="defs30037" />
  <sodipodi:namedview
     id="base"
     pagecolor="#ffffff"
     bordercolor="#666666"
     borderopacity="1.0"
     inkscape:pageopacity="0.0"
     inkscape:pageshadow="2"
     inkscape:zoom="1.979899"
     inkscape:cx="237.99327"
     inkscape:cy="177.57926"
     inkscape:document-units="px"
     inkscape:current-layer="layer1"
     showgrid="false"
     showguides="false"
     inkscape:guide-bbox="true"
     fit-margin-top="0"
     fit-margin-left="0"
     fit-margin-right="0"
     fit-margin-bottom="0"
     inkscape:window-width="1920"
     inkscape:window-height="1028"
     inkscape:window-x="0"
     inkscape:window-y="0"
     inkscape:window-maximized="1">
    <sodipodi:guide
       orientation="1,0"
       position="0.0002065687,374.2857"
       id="guide30582" />
    <sodipodi:guide
       orientation="1,0"
       position="292.14307,319.2857"
       id="guide30584" />
    <sodipodi:guide
       orientation="0,1"
       position="165.71449,302.14285"
       id="guide30586" />
    <sodipodi:guide
       orientation="0,1"
       position="125.00021,364.99999"
       id="guide30588" />
  </sodipodi:namedview>
  <metadata
     id="metadata30040">
    <rdf:RDF>
      <cc:Work
         rdf:about="">
        <dc:format>image/svg+xml</dc:format>
        <dc:type
           rdf:resource="http://purl.org/dc/dcmitype/StillImage" />
        <dc:title></dc:title>
      </cc:Work>
    </rdf:RDF>
  </metadata>
  <g
     inkscape:label="Layer 1"
     inkscape:groupmode="layer"
     id="layer1"
     transform="translate(-153.57122,-182.79076)">
    <path
       style="fill:#495968;fill-opacity:1;fill-rule:evenodd;stroke:none"
       d="m 445.71428,252.36219 0,257.14283 c 0,18.99429 -15.61,34.28572 -35.00001,34.28572 l -221.42854,0 c -19.39001,0 -35.00001,-15.29143 -35.00001,-34.28572 l -0.50508,-257.20231 c 104.36854,0.11237 195.12616,0.0594 291.93364,0.0595 z"
       id="rect30043"
       inkscape:connector-curvature="0"
       sodipodi:nodetypes="csssscc" />
    <g
       id="g30573"
       transform="translate(-2.2156417,-7.1428624)">
      <path
         transform="translate(-293.14149,76.071436)"
         sodipodi:open="true"
         sodipodi:end="9.5731795"
         sodipodi:start="3.2903601"
         d="m 536.37304,320.30767 c 4.88232,-32.57601 35.2483,-55.02617 67.8243,-50.14385 32.576,4.88232 55.02617,35.24829 50.14385,67.82429 -4.88232,32.576 -35.24829,55.02617 -67.8243,50.14385 -32.56757,-4.88106 -55.01622,-35.23335 -50.14708,-67.80271"
         sodipodi:ry="59.642857"
         sodipodi:rx="59.642857"
         sodipodi:cy="329.14789"
         sodipodi:cx="595.35712"
         id="path30045"
         style="fill:#ffffff;fill-opacity:1;fill-rule:nonzero;stroke:none"
         sodipodi:type="arc" />
      <path
         sodipodi:open="true"
         sodipodi:end="6.0164844"
         sodipodi:start="0.18208934"
         d="m 670.87337,343.05261 c -7.67937,41.70648 -47.7145,69.2909 -89.42098,61.61153 -41.70647,-7.67937 -69.29089,-47.7145 -61.61153,-89.42097 7.67937,-41.70648 47.7145,-69.2909 89.42098,-61.61153 29.00805,5.34121 52.39268,26.82646 60.16628,55.27934"
         sodipodi:ry="76.785713"
         sodipodi:rx="76.785713"
         sodipodi:cy="329.14789"
         sodipodi:cx="595.35712"
         id="path30045-2"
         style="fill:none;stroke:#ffffff;stroke-width:5;stroke-linecap:butt;stroke-linejoin:round;stroke-miterlimit:4;stroke-opacity:1;stroke-dasharray:none;stroke-dashoffset:0"
         sodipodi:type="arc"
         transform="translate(-292.49999,76.071436)" />
    </g>
    <path
       style="fill:#495968;fill-opacity:1;fill-rule:evenodd;stroke:none"
       d="m 167.15028,182.79076 264.98515,0 c 7.52268,0 13.57885,6.37143 13.57885,14.28572 l 0,48.42783 -13.57885,0.14359 -264.98515,0 -13.32631,0.10894 -0.25254,-48.68036 c -0.0411,-7.91418 6.05617,-14.28572 13.57885,-14.28572 z"
       id="rect30590"
       inkscape:connector-curvature="0"
       sodipodi:nodetypes="sssccccss" />
    <path
       sodipodi:type="arc"
       style="fill:none;stroke:#ffffff;stroke-width:5;stroke-miterlimit:4;stroke-opacity:1;stroke-dasharray:none"
       id="path30593"
       sodipodi:cx="311.0007"
       sodipodi:cy="166.07959"
       sodipodi:rx="16.541248"
       sodipodi:ry="16.541248"
       d="m 327.54195,166.07959 c 0,9.13548 -7.40577,16.54125 -16.54125,16.54125 -9.13548,0 -16.54125,-7.40577 -16.54125,-16.54125 0,-9.13548 7.40577,-16.54125 16.54125,-16.54125 9.13548,0 16.54125,7.40577 16.54125,16.54125 z"
       transform="translate(101.26779,50.002551)" />
    <rect
       style="fill:#ffffff;fill-opacity:1;fill-rule:evenodd;stroke:none"
       id="rect30595"
       width="69.44799"
       height="22.223356"
       x="308.34906"
       y="199.03581" />
  </g>
</svg>
